<?xml version="1.0" encoding="UTF-8" standalone="no"?>
<!-- Generator: Adobe Illustrator 16.0.0, SVG Export Plug-In . SVG Version: 6.00 Build 0)  -->

<svg
   xmlns:dc="http://purl.org/dc/elements/1.1/"
   xmlns:cc="http://creativecommons.org/ns#"
   xmlns:rdf="http://www.w3.org/1999/02/22-rdf-syntax-ns#"
   xmlns:svg="http://www.w3.org/2000/svg"
   xmlns="http://www.w3.org/2000/svg"
   xmlns:sodipodi="http://sodipodi.sourceforge.net/DTD/sodipodi-0.dtd"
   xmlns:inkscape="http://www.inkscape.org/namespaces/inkscape"
   version="1.1"
   id="Layer_1"
   x="0px"
   y="0px"
   width="408.713px"
   height="12.686px"
   viewBox="0 0 408.713 12.686"
   enable-background="new 0 0 408.713 12.686"
   xml:space="preserve"
   inkscape:version="0.91 r13725"
   sodipodi:docname="logo.svg"><metadata
     id="metadata4231"><rdf:RDF><cc:Work
         rdf:about=""><dc:format>image/svg+xml</dc:format><dc:type
           rdf:resource="http://purl.org/dc/dcmitype/StillImage" /></cc:Work></rdf:RDF></metadata><defs
     id="defs4229" /><sodipodi:namedview
     pagecolor="#ffffff"
     bordercolor="#666666"
     borderopacity="1"
     objecttolerance="10"
     gridtolerance="10"
     guidetolerance="10"
     inkscape:pageopacity="0"
     inkscape:pageshadow="2"
     inkscape:window-width="1920"
     inkscape:window-height="1026"
     id="namedview4227"
     showgrid="false"
     inkscape:zoom="3.1758225"
     inkscape:cx="204.35651"
     inkscape:cy="44.128486"
     inkscape:window-x="0"
     inkscape:window-y="31"
     inkscape:window-maximized="1"
     inkscape:current-layer="g4137" /><g
     id="g4137"><g
       id="g4165"><path
         fill="#FFFFFF"
         d="M78.563,1.981c-0.06,0.146-0.146,0.273-0.253,0.379c-0.106,0.108-0.234,0.193-0.378,0.254    c-0.147,0.062-0.305,0.09-0.475,0.09c-0.171,0-0.33-0.028-0.474-0.09c-0.148-0.061-0.273-0.146-0.382-0.254    c-0.107-0.105-0.19-0.232-0.251-0.379c-0.062-0.146-0.092-0.306-0.092-0.475c0-0.17,0.03-0.328,0.092-0.475    c0.061-0.146,0.144-0.271,0.251-0.379c0.108-0.109,0.234-0.191,0.382-0.254c0.144-0.061,0.302-0.091,0.474-0.091    c0.169,0,0.328,0.03,0.475,0.091c0.145,0.062,0.272,0.145,0.378,0.254c0.107,0.107,0.193,0.232,0.253,0.379    c0.061,0.146,0.09,0.305,0.09,0.475C78.653,1.676,78.624,1.835,78.563,1.981z M78.385,1.111c-0.05-0.122-0.121-0.229-0.213-0.321    c-0.091-0.092-0.196-0.162-0.319-0.214c-0.123-0.05-0.254-0.074-0.396-0.074c-0.145,0-0.278,0.024-0.399,0.074    c-0.122,0.052-0.228,0.122-0.319,0.214c-0.089,0.092-0.16,0.199-0.212,0.321c-0.051,0.123-0.075,0.255-0.075,0.396    c0,0.143,0.024,0.277,0.075,0.398c0.053,0.121,0.123,0.227,0.212,0.318c0.091,0.092,0.198,0.162,0.319,0.213    c0.121,0.05,0.254,0.074,0.399,0.074c0.142,0,0.273-0.024,0.396-0.074c0.123-0.051,0.229-0.121,0.319-0.213    c0.092-0.092,0.163-0.197,0.213-0.318s0.076-0.256,0.076-0.398C78.461,1.366,78.435,1.234,78.385,1.111z M77.923,1.477    c-0.051,0.065-0.117,0.11-0.202,0.134l0.27,0.528h-0.261l-0.254-0.507h-0.252v0.507H77V0.831h0.573    c0.058,0,0.113,0.008,0.165,0.021c0.052,0.016,0.097,0.039,0.134,0.072c0.04,0.031,0.07,0.072,0.094,0.123    C77.988,1.097,78,1.155,78,1.226C78,1.33,77.976,1.412,77.923,1.477z M77.719,1.093c-0.04-0.032-0.091-0.047-0.149-0.047h-0.346    v0.372h0.346c0.058,0,0.109-0.017,0.149-0.046c0.038-0.029,0.059-0.076,0.059-0.141C77.777,1.169,77.756,1.121,77.719,1.093z"
         id="path4167" /></g><g
       id="g4205"
       style="fill:#ffffff;fill-opacity:1"><text
         xml:space="preserve"
         style="font-style:normal;font-variant:normal;font-weight:bold;font-stretch:normal;font-size:15px;line-height:125%;font-family:Overpass;-inkscape-font-specification:'Overpass Bold';text-align:start;letter-spacing:0px;word-spacing:0px;writing-mode:lr-tb;text-anchor:start;fill:#ffffff;fill-opacity:1;stroke:none;stroke-width:1px;stroke-linecap:butt;stroke-linejoin:miter;stroke-opacity:1"
         x="114.3011"
         y="-47.455898"
         id="text4233"
         sodipodi:linespacing="125%"><tspan
           sodipodi:role="line"
           id="tspan4235"
           x="114.3011"
           y="-47.455898" /></text>
<g
         style="font-style:normal;font-variant:normal;font-weight:normal;font-stretch:normal;font-size:16.25px;line-height:1000%;font-family:Overpass;-inkscape-font-specification:'Overpass, Normal';text-align:start;letter-spacing:0px;word-spacing:0px;writing-mode:lr-tb;text-anchor:start;fill:#ffffff;fill-opacity:1;stroke:none;stroke-width:1px;stroke-linecap:butt;stroke-linejoin:miter;stroke-opacity:1"
         id="text4241"
         transform="translate(-167.20078,61.716295)"><path
           d="m 168.03098,-49.660053 0,-11.378174 5.28442,0 q 1.0791,0 1.80115,0.301514 0.72998,0.293579 1.17431,0.785522 0.44434,0.491943 0.63477,1.134644 0.19043,0.6427 0.19043,1.340942 0,0.484009 -0.14282,0.983887 -0.13489,0.491943 -0.4126,0.936279 -0.27771,0.444336 -0.69031,0.809326 -0.4126,0.357056 -0.96008,0.55542 l 2.20581,4.53064 -2.46765,0 -2.12647,-4.244995 -2.29309,0 0,4.244995 -2.19787,0 z m 5.31616,-6.323853 q 0.42053,0 0.70617,-0.119018 0.28565,-0.126953 0.46021,-0.333252 0.17456,-0.206299 0.24597,-0.476075 0.0794,-0.269775 0.0794,-0.563354 0,-0.269775 -0.0714,-0.531616 -0.0635,-0.269776 -0.23011,-0.476074 -0.16662,-0.214234 -0.4602,-0.341187 -0.28565,-0.126953 -0.72998,-0.126953 l -3.11829,0 0,2.967529 3.11829,0 z"
           style="font-style:normal;font-variant:normal;font-weight:bold;font-stretch:normal;font-size:16.25px;line-height:1000%;font-family:Overpass;-inkscape-font-specification:'Overpass Bold';fill:#ffffff;fill-opacity:1"
           id="path4295"
           inkscape:connector-curvature="0" /><path
           d="m 179.64719,-49.660053 0,-11.378174 7.76794,0 0,2.086792 -5.57007,0 0,2.388306 3.27698,0 0,2.078857 -3.27698,0 0,2.745361 5.91126,0 0,2.078858 -8.10913,0 z"
           style="font-style:normal;font-variant:normal;font-weight:bold;font-stretch:normal;font-size:16.25px;line-height:1000%;font-family:Overpass;-inkscape-font-specification:'Overpass Bold';fill:#ffffff;fill-opacity:1"
           id="path4297"
           inkscape:connector-curvature="0" /><path
           d="m 190.12082,-61.038227 3.84033,0 q 0.99182,0 1.78528,0.230102 0.79346,0.222168 1.40442,0.618897 0.61889,0.396728 1.0553,0.944214 0.4364,0.539551 0.71411,1.174316 0.28564,0.626831 0.4126,1.325073 0.13488,0.698243 0.13488,1.396485 0,0.650635 -0.12695,1.333008 -0.11902,0.674438 -0.38879,1.309204 -0.26978,0.626831 -0.70618,1.182251 -0.42847,0.55542 -1.0553,0.975952 -0.6189,0.412598 -1.43616,0.650635 -0.81726,0.238037 -1.86462,0.238037 l -3.76892,0 0,-11.378174 z m 4.03076,9.299316 q 0.849,0 1.42822,-0.325317 0.57923,-0.333252 0.93628,-0.848999 0.35706,-0.523682 0.51575,-1.166382 0.15869,-0.6427 0.15869,-1.269531 0,-0.666504 -0.16662,-1.309204 -0.16663,-0.650635 -0.51575,-1.158448 -0.34119,-0.507812 -0.88867,-0.81726 -0.53955,-0.317383 -1.2854,-0.317383 l -2.01538,0 0,7.212524 1.83288,0 z"
           style="font-style:normal;font-variant:normal;font-weight:bold;font-stretch:normal;font-size:16.25px;line-height:1000%;font-family:Overpass;-inkscape-font-specification:'Overpass Bold';fill:#ffffff;fill-opacity:1"
           id="path4299"
           inkscape:connector-curvature="0" /><path
           d="m 212.69467,-49.660053 0,-4.80835 -4.76074,0 0,4.80835 -2.19788,0 0,-11.378174 2.19788,0 0,4.490967 4.76074,0 0,-4.490967 2.18994,0 0,11.378174 -2.18994,0 z"
           style="font-style:normal;font-variant:normal;font-weight:bold;font-stretch:normal;font-size:16.25px;line-height:1000%;font-family:Overpass;-inkscape-font-specification:'Overpass Bold';fill:#ffffff;fill-opacity:1"
           id="path4301"
           inkscape:connector-curvature="0" /><path
           d="m 225.46933,-49.660053 -0.88074,-2.356568 -4.38781,0 -0.87281,2.356568 -2.35656,0 4.35607,-11.378174 2.14234,0 4.35608,11.378174 -2.35657,0 z m -2.71362,-7.315674 q -0.0873,-0.206299 -0.19043,-0.491943 -0.0952,-0.285645 -0.16663,-0.531617 -0.0635,0.245972 -0.16662,0.531617 -0.10315,0.285644 -0.19043,0.491943 l -1.12671,2.959595 2.95959,0 -1.11877,-2.959595 z"
           style="font-style:normal;font-variant:normal;font-weight:bold;font-stretch:normal;font-size:16.25px;line-height:1000%;font-family:Overpass;-inkscape-font-specification:'Overpass Bold';fill:#ffffff;fill-opacity:1"
           id="path4303"
           inkscape:connector-curvature="0" /><path
           d="m 233.30075,-58.919697 0,9.259644 -2.18994,0 0,-9.259644 -3.25317,0 0,-2.11853 8.69628,0 0,2.11853 -3.25317,0 z"
           style="font-style:normal;font-variant:normal;font-weight:bold;font-stretch:normal;font-size:16.25px;line-height:1000%;font-family:Overpass;-inkscape-font-specification:'Overpass Bold';fill:#ffffff;fill-opacity:1"
           id="path4305"
           inkscape:connector-curvature="0" /><path
           d="m 249.59042,-49.660053 -0.8728,-1.087036 q -0.62683,0.610962 -1.42822,0.952148 -0.79346,0.333252 -1.82495,0.333252 -0.78553,0 -1.42823,-0.230103 -0.63476,-0.238037 -1.08703,-0.666503 -0.45227,-0.428467 -0.69824,-1.031495 -0.24598,-0.610961 -0.24598,-1.356811 0,-0.618897 0.19043,-1.118775 0.19837,-0.507812 0.53162,-0.912475 0.33325,-0.404663 0.76965,-0.714111 0.4364,-0.317383 0.92835,-0.571289 -0.30152,-0.357056 -0.50781,-0.666504 -0.19837,-0.309449 -0.32532,-0.603028 -0.12695,-0.301513 -0.1825,-0.595093 -0.0555,-0.301513 -0.0555,-0.634765 0,-0.650635 0.22217,-1.150513 0.22217,-0.499878 0.61096,-0.83313 0.39673,-0.341186 0.92041,-0.507812 0.52368,-0.174561 1.13464,-0.174561 0.6189,0 1.13465,0.19043 0.52368,0.182495 0.8966,0.523682 0.38086,0.341186 0.58716,0.833129 0.21424,0.484009 0.21424,1.087037 0,0.515747 -0.14283,0.936279 -0.14282,0.420532 -0.38879,0.769653 -0.24597,0.341187 -0.57922,0.626831 -0.32532,0.285645 -0.69825,0.523682 l 1.25367,1.491699 q 0.0635,-0.253906 0.0952,-0.539551 0.0397,-0.285644 0.0397,-0.563354 l 2.07886,0 q -0.008,0.388794 -0.0635,0.785522 -0.0476,0.396729 -0.14283,0.769654 -0.0873,0.372924 -0.22217,0.714111 -0.13488,0.341186 -0.30944,0.610962 l 2.34069,2.808838 -2.74536,0 z m -3.89587,-1.832886 q 0.52368,0 0.97595,-0.19043 0.45227,-0.198364 0.84107,-0.547485 l -1.95191,-2.404175 q -0.67444,0.372925 -1.02356,0.817261 -0.34118,0.436401 -0.34118,1.00769 0,0.285645 0.10315,0.531617 0.10314,0.238037 0.29357,0.412597 0.19043,0.174561 0.46814,0.27771 0.27771,0.09522 0.63477,0.09522 z m -0.35706,-7.20459 q 0,0.404663 0.21424,0.793457 0.21423,0.388794 0.59509,0.817261 0.42053,-0.253906 0.68237,-0.610962 0.26184,-0.36499 0.26184,-0.864868 0,-0.269776 -0.0714,-0.460205 -0.0714,-0.198364 -0.19836,-0.325318 -0.12695,-0.126953 -0.29358,-0.190429 -0.15869,-0.06348 -0.33325,-0.06348 -0.36499,0 -0.61096,0.245972 -0.24598,0.245972 -0.24598,0.658569 z"
           style="font-style:normal;font-variant:normal;font-weight:bold;font-stretch:normal;font-size:16.25px;line-height:1000%;font-family:Overpass;-inkscape-font-specification:'Overpass Bold';fill:#ffffff;fill-opacity:1"
           id="path4307"
           inkscape:connector-curvature="0" /><path
           d="m 262.51584,-49.461689 q -0.88074,0 -1.59485,-0.230103 -0.71411,-0.230102 -1.26953,-0.634765 -0.55542,-0.404663 -0.96008,-0.960083 -0.40467,-0.563355 -0.66651,-1.213989 -0.26184,-0.650635 -0.38879,-1.372681 -0.12696,-0.729981 -0.12696,-1.47583 0,-0.690308 0.12696,-1.396485 0.13489,-0.706176 0.40466,-1.356811 0.27771,-0.658569 0.68237,-1.229858 0.4126,-0.57129 0.96802,-0.991822 0.56336,-0.420532 1.2616,-0.658569 0.70618,-0.245972 1.56311,-0.245972 0.82519,0 1.45202,0.206299 0.63477,0.206299 1.11878,0.547485 0.49194,0.333252 0.849,0.777588 0.36499,0.436402 0.65857,0.904541 l -1.93604,1.102906 q -0.19043,-0.285645 -0.4126,-0.539551 -0.22216,-0.261841 -0.484,-0.460205 -0.25391,-0.198365 -0.56336,-0.309449 -0.30945,-0.119018 -0.68237,-0.119018 -0.53162,0 -0.93628,0.166626 -0.40466,0.158691 -0.71411,0.444336 -0.30152,0.27771 -0.50781,0.650635 -0.2063,0.372924 -0.33326,0.793457 -0.12695,0.420532 -0.18249,0.864868 -0.0555,0.436401 -0.0555,0.848999 0,0.722046 0.15075,1.404419 0.15076,0.674438 0.47608,1.206054 0.33325,0.523682 0.849,0.841065 0.52368,0.317383 1.25366,0.317383 0.4126,0 0.76965,-0.142823 0.36499,-0.150756 0.63477,-0.396728 0.26977,-0.253906 0.42053,-0.595093 0.15869,-0.341186 0.15869,-0.72998 l 0,-0.09522 -1.93603,0 0,-2.086792 4.17358,0 0,1.674194 q 0,1.094971 -0.32532,1.936035 -0.32531,0.83313 -0.8966,1.404419 -0.56336,0.563355 -1.33301,0.856934 -0.76965,0.293579 -1.66626,0.293579 z"
           style="font-style:normal;font-variant:normal;font-weight:bold;font-stretch:normal;font-size:16.25px;line-height:1000%;font-family:Overpass;-inkscape-font-specification:'Overpass Bold';fill:#ffffff;fill-opacity:1"
           id="path4309"
           inkscape:connector-curvature="0" /><path
           d="m 273.7988,-49.461689 q -0.92041,0 -1.65039,-0.238037 -0.72998,-0.245972 -1.29334,-0.658569 -0.55542,-0.420533 -0.95215,-0.983887 -0.39672,-0.571289 -0.65063,-1.221924 -0.24597,-0.658569 -0.36499,-1.364746 -0.11109,-0.714111 -0.11109,-1.420288 0,-0.698242 0.11109,-1.404419 0.11902,-0.714111 0.36499,-1.364746 0.25391,-0.65857 0.65063,-1.221924 0.39673,-0.571289 0.95215,-0.983887 0.56336,-0.420532 1.29334,-0.658569 0.72998,-0.245972 1.65039,-0.245972 0.92041,0 1.64245,0.245972 0.72998,0.238037 1.2854,0.658569 0.55542,0.412598 0.95215,0.983887 0.39673,0.563354 0.6427,1.221924 0.25391,0.650635 0.36499,1.364746 0.11902,0.706177 0.11902,1.404419 0,0.706177 -0.11902,1.420288 -0.11108,0.706177 -0.36499,1.364746 -0.24597,0.650635 -0.6427,1.221924 -0.39673,0.563354 -0.95215,0.983887 -0.55542,0.412597 -1.2854,0.658569 -0.72204,0.238037 -1.64245,0.238037 z m 0,-2.11853 q 0.76172,0 1.27746,-0.357056 0.52369,-0.357056 0.84107,-0.912476 0.32532,-0.555419 0.46814,-1.213989 0.14282,-0.666504 0.14282,-1.2854 0,-0.436402 -0.0635,-0.880737 -0.0555,-0.452271 -0.19043,-0.864869 -0.13488,-0.420532 -0.34912,-0.785522 -0.21423,-0.372925 -0.51574,-0.6427 -0.30152,-0.27771 -0.70618,-0.436402 -0.39673,-0.158691 -0.90454,-0.158691 -0.51575,0 -0.92041,0.166626 -0.39673,0.166626 -0.70618,0.45227 -0.30151,0.27771 -0.51575,0.650635 -0.21423,0.372925 -0.34912,0.793457 -0.13489,0.420532 -0.19836,0.856934 -0.0555,0.436401 -0.0555,0.848999 0,0.650635 0.14282,1.325073 0.14282,0.666504 0.4602,1.213989 0.32532,0.539551 0.849,0.888672 0.52368,0.341187 1.29334,0.341187 z"
           style="font-style:normal;font-variant:normal;font-weight:bold;font-stretch:normal;font-size:16.25px;line-height:1000%;font-family:Overpass;-inkscape-font-specification:'Overpass Bold';fill:#ffffff;fill-opacity:1"
           id="path4311"
           inkscape:connector-curvature="0" /><path
           d="m 285.95456,-49.461689 q -0.92041,0 -1.65039,-0.238037 -0.72998,-0.245972 -1.29334,-0.658569 -0.55542,-0.420533 -0.95214,-0.983887 -0.39673,-0.571289 -0.65064,-1.221924 -0.24597,-0.658569 -0.36499,-1.364746 -0.11108,-0.714111 -0.11108,-1.420288 0,-0.698242 0.11108,-1.404419 0.11902,-0.714111 0.36499,-1.364746 0.25391,-0.65857 0.65064,-1.221924 0.39672,-0.571289 0.95214,-0.983887 0.56336,-0.420532 1.29334,-0.658569 0.72998,-0.245972 1.65039,-0.245972 0.92041,0 1.64246,0.245972 0.72998,0.238037 1.2854,0.658569 0.55542,0.412598 0.95214,0.983887 0.39673,0.563354 0.6427,1.221924 0.25391,0.650635 0.36499,1.364746 0.11902,0.706177 0.11902,1.404419 0,0.706177 -0.11902,1.420288 -0.11108,0.706177 -0.36499,1.364746 -0.24597,0.650635 -0.6427,1.221924 -0.39672,0.563354 -0.95214,0.983887 -0.55542,0.412597 -1.2854,0.658569 -0.72205,0.238037 -1.64246,0.238037 z m 0,-2.11853 q 0.76172,0 1.27747,-0.357056 0.52368,-0.357056 0.84106,-0.912476 0.32532,-0.555419 0.46814,-1.213989 0.14282,-0.666504 0.14282,-1.2854 0,-0.436402 -0.0635,-0.880737 -0.0555,-0.452271 -0.19042,-0.864869 -0.13489,-0.420532 -0.34913,-0.785522 -0.21423,-0.372925 -0.51574,-0.6427 -0.30152,-0.27771 -0.70618,-0.436402 -0.39673,-0.158691 -0.90454,-0.158691 -0.51575,0 -0.92041,0.166626 -0.39673,0.166626 -0.70618,0.45227 -0.30151,0.27771 -0.51574,0.650635 -0.21424,0.372925 -0.34913,0.793457 -0.13488,0.420532 -0.19836,0.856934 -0.0555,0.436401 -0.0555,0.848999 0,0.650635 0.14282,1.325073 0.14282,0.666504 0.46021,1.213989 0.32531,0.539551 0.84899,0.888672 0.52369,0.341187 1.29334,0.341187 z"
           style="font-style:normal;font-variant:normal;font-weight:bold;font-stretch:normal;font-size:16.25px;line-height:1000%;font-family:Overpass;-inkscape-font-specification:'Overpass Bold';fill:#ffffff;fill-opacity:1"
           id="path4313"
           inkscape:connector-curvature="0" /><path
           d="m 298.09445,-49.461689 q -0.88074,0 -1.59485,-0.230103 -0.71411,-0.230102 -1.26953,-0.634765 -0.55542,-0.404663 -0.96008,-0.960083 -0.40466,-0.563355 -0.6665,-1.213989 -0.26185,-0.650635 -0.3888,-1.372681 -0.12695,-0.729981 -0.12695,-1.47583 0,-0.690308 0.12695,-1.396485 0.13489,-0.706176 0.40466,-1.356811 0.27771,-0.658569 0.68238,-1.229858 0.41259,-0.57129 0.96801,-0.991822 0.56336,-0.420532 1.2616,-0.658569 0.70618,-0.245972 1.56311,-0.245972 0.8252,0 1.45203,0.206299 0.63476,0.206299 1.11877,0.547485 0.49195,0.333252 0.849,0.777588 0.36499,0.436402 0.65857,0.904541 l -1.93603,1.102906 q -0.19043,-0.285645 -0.4126,-0.539551 -0.22217,-0.261841 -0.48401,-0.460205 -0.25391,-0.198365 -0.56336,-0.309449 -0.30944,-0.119018 -0.68237,-0.119018 -0.53161,0 -0.93628,0.166626 -0.40466,0.158691 -0.71411,0.444336 -0.30151,0.27771 -0.50781,0.650635 -0.2063,0.372924 -0.33325,0.793457 -0.12696,0.420532 -0.1825,0.864868 -0.0555,0.436401 -0.0555,0.848999 0,0.722046 0.15076,1.404419 0.15075,0.674438 0.47607,1.206054 0.33325,0.523682 0.849,0.841065 0.52368,0.317383 1.25366,0.317383 0.4126,0 0.76966,-0.142823 0.36499,-0.150756 0.63476,-0.396728 0.26978,-0.253906 0.42053,-0.595093 0.15869,-0.341186 0.15869,-0.72998 l 0,-0.09522 -1.93603,0 0,-2.086792 4.17358,0 0,1.674194 q 0,1.094971 -0.32531,1.936035 -0.32532,0.83313 -0.89661,1.404419 -0.56336,0.563355 -1.33301,0.856934 -0.76965,0.293579 -1.66626,0.293579 z"
           style="font-style:normal;font-variant:normal;font-weight:bold;font-stretch:normal;font-size:16.25px;line-height:1000%;font-family:Overpass;-inkscape-font-specification:'Overpass Bold';fill:#ffffff;fill-opacity:1"
           id="path4315"
           inkscape:connector-curvature="0" /><path
           d="m 304.75949,-49.660053 0,-11.378174 2.19788,0 0,9.267578 5.49072,0 0,2.110596 -7.6886,0 z"
           style="font-style:normal;font-variant:normal;font-weight:bold;font-stretch:normal;font-size:16.25px;line-height:1000%;font-family:Overpass;-inkscape-font-specification:'Overpass Bold';fill:#ffffff;fill-opacity:1"
           id="path4317"
           inkscape:connector-curvature="0" /><path
           d="m 314.15402,-49.660053 0,-11.378174 7.76795,0 0,2.086792 -5.57007,0 0,2.388306 3.27698,0 0,2.078857 -3.27698,0 0,2.745361 5.91125,0 0,2.078858 -8.10913,0 z"
           style="font-style:normal;font-variant:normal;font-weight:bold;font-stretch:normal;font-size:16.25px;line-height:1000%;font-family:Overpass;-inkscape-font-specification:'Overpass Bold';fill:#ffffff;fill-opacity:1"
           id="path4319"
           inkscape:connector-curvature="0" /><path
           d="m 332.74472,-49.477558 q -0.88867,0 -1.58691,-0.238037 -0.69825,-0.238037 -1.22986,-0.65857 -0.53162,-0.420532 -0.90454,-0.983886 -0.37293,-0.563355 -0.61096,-1.21399 -0.23011,-0.658569 -0.34119,-1.364746 -0.10315,-0.706176 -0.10315,-1.412353 0,-0.650635 0.11108,-1.333008 0.11109,-0.690308 0.34119,-1.340942 0.23804,-0.650635 0.61096,-1.229859 0.38086,-0.579223 0.90454,-1.015625 0.53162,-0.436401 1.22986,-0.690307 0.69824,-0.253907 1.57898,-0.253907 0.81726,0 1.48377,0.222168 0.6665,0.222168 1.17431,0.587159 0.50781,0.357055 0.85694,0.81726 0.35705,0.460205 0.54748,0.93628 l -1.96777,0.896606 q -0.2063,-0.317383 -0.42054,-0.571289 -0.21423,-0.253906 -0.4602,-0.420532 -0.24597,-0.174561 -0.54749,-0.261841 -0.29357,-0.09522 -0.6665,-0.09522 -0.47607,0 -0.849,0.166626 -0.37292,0.158691 -0.65063,0.436401 -0.27771,0.27771 -0.46814,0.650635 -0.19043,0.372925 -0.30945,0.793457 -0.11902,0.412598 -0.17456,0.856934 -0.0476,0.436401 -0.0476,0.848999 0,0.666504 0.14282,1.333008 0.14283,0.666504 0.44434,1.206054 0.30151,0.539551 0.76965,0.880738 0.47608,0.333252 1.14258,0.333252 0.34912,0 0.6427,-0.10315 0.29358,-0.111084 0.53955,-0.301513 0.25391,-0.19043 0.46814,-0.460206 0.22217,-0.269775 0.4126,-0.595092 l 2.01538,0.761718 q -0.26978,0.626831 -0.65064,1.150513 -0.38085,0.515747 -0.88867,0.888672 -0.49987,0.36499 -1.13464,0.571289 -0.63477,0.206299 -1.40442,0.206299 z"
           style="font-style:normal;font-variant:normal;font-weight:bold;font-stretch:normal;font-size:16.25px;line-height:1000%;font-family:Overpass;-inkscape-font-specification:'Overpass Bold';fill:#ffffff;fill-opacity:1"
           id="path4321"
           inkscape:connector-curvature="0" /><path
           d="m 343.71823,-49.461689 q -0.92041,0 -1.65039,-0.238037 -0.72998,-0.245972 -1.29333,-0.658569 -0.55542,-0.420533 -0.95215,-0.983887 -0.39673,-0.571289 -0.65064,-1.221924 -0.24597,-0.658569 -0.36499,-1.364746 -0.11108,-0.714111 -0.11108,-1.420288 0,-0.698242 0.11108,-1.404419 0.11902,-0.714111 0.36499,-1.364746 0.25391,-0.65857 0.65064,-1.221924 0.39673,-0.571289 0.95215,-0.983887 0.56335,-0.420532 1.29333,-0.658569 0.72998,-0.245972 1.65039,-0.245972 0.92041,0 1.64246,0.245972 0.72998,0.238037 1.2854,0.658569 0.55542,0.412598 0.95215,0.983887 0.39672,0.563354 0.6427,1.221924 0.2539,0.650635 0.36499,1.364746 0.11902,0.706177 0.11902,1.404419 0,0.706177 -0.11902,1.420288 -0.11109,0.706177 -0.36499,1.364746 -0.24598,0.650635 -0.6427,1.221924 -0.39673,0.563354 -0.95215,0.983887 -0.55542,0.412597 -1.2854,0.658569 -0.72205,0.238037 -1.64246,0.238037 z m 0,-2.11853 q 0.76172,0 1.27747,-0.357056 0.52368,-0.357056 0.84106,-0.912476 0.32532,-0.555419 0.46814,-1.213989 0.14282,-0.666504 0.14282,-1.2854 0,-0.436402 -0.0635,-0.880737 -0.0555,-0.452271 -0.19043,-0.864869 -0.13489,-0.420532 -0.34912,-0.785522 -0.21424,-0.372925 -0.51575,-0.6427 -0.30151,-0.27771 -0.70618,-0.436402 -0.39673,-0.158691 -0.90454,-0.158691 -0.51575,0 -0.92041,0.166626 -0.39673,0.166626 -0.70618,0.45227 -0.30151,0.27771 -0.51574,0.650635 -0.21424,0.372925 -0.34912,0.793457 -0.13489,0.420532 -0.19837,0.856934 -0.0555,0.436401 -0.0555,0.848999 0,0.650635 0.14282,1.325073 0.14282,0.666504 0.46021,1.213989 0.32531,0.539551 0.849,0.888672 0.52368,0.341187 1.29333,0.341187 z"
           style="font-style:normal;font-variant:normal;font-weight:bold;font-stretch:normal;font-size:16.25px;line-height:1000%;font-family:Overpass;-inkscape-font-specification:'Overpass Bold';fill:#ffffff;fill-opacity:1"
           id="path4323"
           inkscape:connector-curvature="0" /><path
           d="m 358.37338,-49.660053 -4.51477,-6.633301 q -0.11108,-0.166626 -0.24597,-0.404663 -0.12695,-0.245972 -0.22217,-0.452271 0.0238,0.182495 0.0317,0.428467 0.0159,0.245972 0.0159,0.428467 l 0,6.633301 -2.18201,0 0,-11.378174 2.06299,0 4.40369,6.553955 q 0.10315,0.158691 0.23803,0.396729 0.13489,0.238037 0.23804,0.460205 -0.0238,-0.230103 -0.0397,-0.460205 -0.008,-0.238038 -0.008,-0.396729 l 0,-6.553955 2.17408,0 0,11.378174 -1.95191,0 z"
           style="font-style:normal;font-variant:normal;font-weight:bold;font-stretch:normal;font-size:16.25px;line-height:1000%;font-family:Overpass;-inkscape-font-specification:'Overpass Bold';fill:#ffffff;fill-opacity:1"
           id="path4325"
           inkscape:connector-curvature="0" /><path
           d="m 367.96628,-58.919697 0,9.259644 -2.18994,0 0,-9.259644 -3.25318,0 0,-2.11853 8.69629,0 0,2.11853 -3.25317,0 z"
           style="font-style:normal;font-variant:normal;font-weight:bold;font-stretch:normal;font-size:16.25px;line-height:1000%;font-family:Overpass;-inkscape-font-specification:'Overpass Bold';fill:#ffffff;fill-opacity:1"
           id="path4327"
           inkscape:connector-curvature="0" /><path
           d="m 379.74911,-49.660053 -0.88073,-2.356568 -4.38782,0 -0.8728,2.356568 -2.35657,0 4.35608,-11.378174 2.14233,0 4.35608,11.378174 -2.35657,0 z m -2.71362,-7.315674 q -0.0873,-0.206299 -0.19043,-0.491943 -0.0952,-0.285645 -0.16662,-0.531617 -0.0635,0.245972 -0.16663,0.531617 -0.10315,0.285644 -0.19043,0.491943 l -1.12671,2.959595 2.9596,0 -1.11878,-2.959595 z"
           style="font-style:normal;font-variant:normal;font-weight:bold;font-stretch:normal;font-size:16.25px;line-height:1000%;font-family:Overpass;-inkscape-font-specification:'Overpass Bold';fill:#ffffff;fill-opacity:1"
           id="path4329"
           inkscape:connector-curvature="0" /><path
           d="m 384.25595,-49.660053 0,-11.378174 2.18994,0 0,11.378174 -2.18994,0 z"
           style="font-style:normal;font-variant:normal;font-weight:bold;font-stretch:normal;font-size:16.25px;line-height:1000%;font-family:Overpass;-inkscape-font-specification:'Overpass Bold';fill:#ffffff;fill-opacity:1"
           id="path4331"
           inkscape:connector-curvature="0" /><path
           d="m 396.58627,-49.660053 -4.51477,-6.633301 q -0.11108,-0.166626 -0.24597,-0.404663 -0.12695,-0.245972 -0.22217,-0.452271 0.0238,0.182495 0.0317,0.428467 0.0159,0.245972 0.0159,0.428467 l 0,6.633301 -2.18201,0 0,-11.378174 2.06299,0 4.40369,6.553955 q 0.10315,0.158691 0.23804,0.396729 0.13488,0.238037 0.23803,0.460205 -0.0238,-0.230103 -0.0397,-0.460205 -0.008,-0.238038 -0.008,-0.396729 l 0,-6.553955 2.17407,0 0,11.378174 -1.95191,0 z"
           style="font-style:normal;font-variant:normal;font-weight:bold;font-stretch:normal;font-size:16.25px;line-height:1000%;font-family:Overpass;-inkscape-font-specification:'Overpass Bold';fill:#ffffff;fill-opacity:1"
           id="path4333"
           inkscape:connector-curvature="0" /><path
           d="m 401.46603,-49.660053 0,-11.378174 7.76795,0 0,2.086792 -5.57007,0 0,2.388306 3.27698,0 0,2.078857 -3.27698,0 0,2.745361 5.91125,0 0,2.078858 -8.10913,0 z"
           style="font-style:normal;font-variant:normal;font-weight:bold;font-stretch:normal;font-size:16.25px;line-height:1000%;font-family:Overpass;-inkscape-font-specification:'Overpass Bold';fill:#ffffff;fill-opacity:1"
           id="path4335"
           inkscape:connector-curvature="0" /><path
           d="m 411.93967,-49.660053 0,-11.378174 5.28442,0 q 1.0791,0 1.80115,0.301514 0.72998,0.293579 1.17431,0.785522 0.44434,0.491943 0.63477,1.134644 0.19043,0.6427 0.19043,1.340942 0,0.484009 -0.14282,0.983887 -0.13489,0.491943 -0.4126,0.936279 -0.27771,0.444336 -0.69031,0.809326 -0.4126,0.357056 -0.96008,0.55542 l 2.20581,4.53064 -2.46765,0 -2.12647,-4.244995 -2.29309,0 0,4.244995 -2.19787,0 z m 5.31616,-6.323853 q 0.42053,0 0.70618,-0.119018 0.28564,-0.126953 0.4602,-0.333252 0.17456,-0.206299 0.24597,-0.476075 0.0793,-0.269775 0.0793,-0.563354 0,-0.269775 -0.0714,-0.531616 -0.0635,-0.269776 -0.23011,-0.476074 -0.16662,-0.214234 -0.4602,-0.341187 -0.28565,-0.126953 -0.72998,-0.126953 l -3.11829,0 0,2.967529 3.11829,0 z"
           style="font-style:normal;font-variant:normal;font-weight:bold;font-stretch:normal;font-size:16.25px;line-height:1000%;font-family:Overpass;-inkscape-font-specification:'Overpass Bold';fill:#ffffff;fill-opacity:1"
           id="path4337"
           inkscape:connector-curvature="0" /><path
           d="m 432.01413,-58.919697 0,9.259644 -2.18994,0 0,-9.259644 -3.25318,0 0,-2.11853 8.69629,0 0,2.11853 -3.25317,0 z"
           style="font-style:normal;font-variant:normal;font-weight:bold;font-stretch:normal;font-size:16.25px;line-height:1000%;font-family:Overpass;-inkscape-font-specification:'Overpass Bold';fill:#ffffff;fill-opacity:1"
           id="path4339"
           inkscape:connector-curvature="0" /><path
           d="m 441.69431,-49.461689 q -0.92041,0 -1.6504,-0.238037 -0.72998,-0.245972 -1.29333,-0.658569 -0.55542,-0.420533 -0.95215,-0.983887 -0.39673,-0.571289 -0.65063,-1.221924 -0.24598,-0.658569 -0.36499,-1.364746 -0.11109,-0.714111 -0.11109,-1.420288 0,-0.698242 0.11109,-1.404419 0.11901,-0.714111 0.36499,-1.364746 0.2539,-0.65857 0.65063,-1.221924 0.39673,-0.571289 0.95215,-0.983887 0.56335,-0.420532 1.29333,-0.658569 0.72999,-0.245972 1.6504,-0.245972 0.92041,0 1.64245,0.245972 0.72998,0.238037 1.2854,0.658569 0.55542,0.412598 0.95215,0.983887 0.39673,0.563354 0.6427,1.221924 0.25391,0.650635 0.36499,1.364746 0.11902,0.706177 0.11902,1.404419 0,0.706177 -0.11902,1.420288 -0.11108,0.706177 -0.36499,1.364746 -0.24597,0.650635 -0.6427,1.221924 -0.39673,0.563354 -0.95215,0.983887 -0.55542,0.412597 -1.2854,0.658569 -0.72204,0.238037 -1.64245,0.238037 z m 0,-2.11853 q 0.76171,0 1.27746,-0.357056 0.52368,-0.357056 0.84107,-0.912476 0.32531,-0.555419 0.46814,-1.213989 0.14282,-0.666504 0.14282,-1.2854 0,-0.436402 -0.0635,-0.880737 -0.0555,-0.452271 -0.19043,-0.864869 -0.13489,-0.420532 -0.34912,-0.785522 -0.21423,-0.372925 -0.51575,-0.6427 -0.30151,-0.27771 -0.70617,-0.436402 -0.39673,-0.158691 -0.90454,-0.158691 -0.51575,0 -0.92041,0.166626 -0.39673,0.166626 -0.70618,0.45227 -0.30152,0.27771 -0.51575,0.650635 -0.21423,0.372925 -0.34912,0.793457 -0.13489,0.420532 -0.19836,0.856934 -0.0555,0.436401 -0.0555,0.848999 0,0.650635 0.14283,1.325073 0.14282,0.666504 0.4602,1.213989 0.32532,0.539551 0.849,0.888672 0.52368,0.341187 1.29334,0.341187 z"
           style="font-style:normal;font-variant:normal;font-weight:bold;font-stretch:normal;font-size:16.25px;line-height:1000%;font-family:Overpass;-inkscape-font-specification:'Overpass Bold';fill:#ffffff;fill-opacity:1"
           id="path4341"
           inkscape:connector-curvature="0" /><path
           d="m 453.73898,-49.461689 q -0.57922,0 -1.15051,-0.103149 -0.56335,-0.09521 -1.07117,-0.317383 -0.50781,-0.222168 -0.94421,-0.571289 -0.42847,-0.357056 -0.74585,-0.864868 -0.31738,-0.507813 -0.49988,-1.174317 -0.17456,-0.666504 -0.17456,-1.523437 l 0,-7.022095 2.19788,0 0,7.022095 q 0,0.706176 0.15869,1.182251 0.16662,0.468139 0.47607,0.745849 0.30945,0.27771 0.75379,0.396729 0.44433,0.111084 0.99975,0.111084 0.54749,0 0.98389,-0.111084 0.44434,-0.119019 0.75378,-0.396729 0.31739,-0.27771 0.48401,-0.745849 0.16663,-0.476075 0.16663,-1.182251 l 0,-7.022095 2.18994,0 0,7.022095 q 0,1.269531 -0.38086,2.142334 -0.38086,0.864868 -1.02356,1.404419 -0.63476,0.531616 -1.45996,0.769653 -0.82519,0.238037 -1.71387,0.238037 z"
           style="font-style:normal;font-variant:normal;font-weight:bold;font-stretch:normal;font-size:16.25px;line-height:1000%;font-family:Overpass;-inkscape-font-specification:'Overpass Bold';fill:#ffffff;fill-opacity:1"
           id="path4343"
           inkscape:connector-curvature="0" /><path
           d="m 461.16574,-49.660053 0,-11.378174 5.28442,0 q 1.07911,0 1.80115,0.301514 0.72998,0.293579 1.17432,0.785522 0.44433,0.491943 0.63476,1.134644 0.19043,0.6427 0.19043,1.340942 0,0.484009 -0.14282,0.983887 -0.13489,0.491943 -0.4126,0.936279 -0.27771,0.444336 -0.6903,0.809326 -0.4126,0.357056 -0.96009,0.55542 l 2.20581,4.53064 -2.46765,0 -2.12646,-4.244995 -2.29309,0 0,4.244995 -2.19788,0 z m 5.31616,-6.323853 q 0.42054,0 0.70618,-0.119018 0.28564,-0.126953 0.4602,-0.333252 0.17457,-0.206299 0.24598,-0.476075 0.0793,-0.269775 0.0793,-0.563354 0,-0.269775 -0.0714,-0.531616 -0.0635,-0.269776 -0.2301,-0.476074 -0.16663,-0.214234 -0.46021,-0.341187 -0.28564,-0.126953 -0.72998,-0.126953 l -3.11828,0 0,2.967529 3.11828,0 z"
           style="font-style:normal;font-variant:normal;font-weight:bold;font-stretch:normal;font-size:16.25px;line-height:1000%;font-family:Overpass;-inkscape-font-specification:'Overpass Bold';fill:#ffffff;fill-opacity:1"
           id="path4345"
           inkscape:connector-curvature="0" /><path
           d="m 476.12241,-49.660053 q 0,-1.261597 0.30944,-2.237549 0.31739,-0.983887 0.85694,-1.737671 0.53955,-0.753784 1.26159,-1.317139 0.72205,-0.571289 1.53931,-1.015625 0.30945,-0.166626 0.60303,-0.349121 0.29358,-0.182495 0.51575,-0.404663 0.2301,-0.222168 0.36499,-0.491943 0.14282,-0.269776 0.14282,-0.603028 0,-0.626831 -0.40467,-0.975952 -0.40466,-0.357055 -1.0791,-0.357055 -0.71411,0 -1.19812,0.341186 -0.48401,0.341187 -0.76965,0.944214 l -1.95984,-0.896606 q 0.24597,-0.571289 0.6427,-1.02356 0.39673,-0.460205 0.89661,-0.777588 0.49988,-0.325317 1.09497,-0.491943 0.59509,-0.174561 1.24573,-0.174561 0.88073,0 1.57104,0.261841 0.69031,0.261841 1.16638,0.714111 0.47608,0.452271 0.72998,1.071167 0.25391,0.610962 0.25391,1.317139 0,0.777588 -0.21423,1.340942 -0.21424,0.563355 -0.5951,0.991822 -0.38086,0.428467 -0.91247,0.777588 -0.53162,0.341186 -1.16638,0.690307 -0.88868,0.491944 -1.47583,1.047364 -0.58716,0.547485 -0.81726,1.245727 l 5.27648,0 0,2.110596 -7.87902,0 z"
           style="font-style:normal;font-variant:normal;font-weight:bold;font-stretch:normal;font-size:16.25px;line-height:1000%;font-family:Overpass;-inkscape-font-specification:'Overpass Bold';fill:#ffffff;fill-opacity:1"
           id="path4347"
           inkscape:connector-curvature="0" /><path
           d="m 490.53952,-49.461689 q -0.81726,0 -1.44409,-0.238037 -0.62683,-0.245972 -1.09497,-0.666504 -0.46814,-0.420532 -0.78552,-0.991821 -0.30945,-0.571289 -0.50782,-1.221924 -0.19043,-0.658569 -0.27771,-1.364746 -0.0793,-0.706177 -0.0793,-1.404419 0,-0.698242 0.0793,-1.404419 0.0873,-0.714111 0.27771,-1.364746 0.19837,-0.65857 0.50782,-1.221924 0.31738,-0.571289 0.78552,-0.983887 0.46814,-0.420532 1.09497,-0.658569 0.62683,-0.245972 1.44409,-0.245972 0.81726,0 1.44409,0.238037 0.62683,0.238037 1.09497,0.65857 0.46814,0.420532 0.77759,0.983886 0.31738,0.563355 0.50781,1.221924 0.19837,0.650635 0.27771,1.364746 0.0873,0.706177 0.0873,1.412354 0,0.698242 -0.0873,1.404419 -0.0793,0.706177 -0.27771,1.364746 -0.19043,0.650635 -0.50781,1.221924 -0.30945,0.571289 -0.77759,0.991821 -0.46814,0.420532 -1.09497,0.666504 -0.62683,0.238037 -1.44409,0.238037 z m 0,-2.086792 q 0.57922,0 0.96008,-0.325317 0.3888,-0.325318 0.6189,-0.856934 0.2301,-0.539551 0.32532,-1.221924 0.0952,-0.682373 0.0952,-1.396484 0,-0.714111 -0.0952,-1.396485 -0.0952,-0.682373 -0.32532,-1.213989 -0.2301,-0.539551 -0.6189,-0.864868 -0.38086,-0.325317 -0.96008,-0.325317 -0.57922,0 -0.96802,0.325317 -0.38086,0.325317 -0.61096,0.864868 -0.2301,0.531616 -0.32532,1.213989 -0.0952,0.682374 -0.0952,1.396485 0,0.714111 0.0952,1.396484 0.0952,0.682373 0.32532,1.221924 0.2301,0.531616 0.61096,0.856934 0.3888,0.325317 0.96802,0.325317 z"
           style="font-style:normal;font-variant:normal;font-weight:bold;font-stretch:normal;font-size:16.25px;line-height:1000%;font-family:Overpass;-inkscape-font-specification:'Overpass Bold';fill:#ffffff;fill-opacity:1"
           id="path4349"
           inkscape:connector-curvature="0" /><path
           d="m 498.25986,-49.660053 0,-8.418579 -1.73767,0 0,-1.737671 q 0.40466,0 0.74585,-0.05554 0.34912,-0.06348 0.62683,-0.206299 0.28564,-0.142822 0.48401,-0.372925 0.20629,-0.238037 0.31738,-0.587158 l 1.75354,0 0,11.378174 -2.18994,0 z"
           style="font-style:normal;font-variant:normal;font-weight:bold;font-stretch:normal;font-size:16.25px;line-height:1000%;font-family:Overpass;-inkscape-font-specification:'Overpass Bold';fill:#ffffff;fill-opacity:1"
           id="path4351"
           inkscape:connector-curvature="0" /><path
           d="m 507.94003,-49.461689 q -1.02356,0 -1.80114,-0.333252 -0.76966,-0.341186 -1.29334,-0.928345 -0.52368,-0.587158 -0.78552,-1.388549 -0.26184,-0.809327 -0.26184,-1.737671 0,-1.380616 0.38086,-2.602539 0.38086,-1.221924 1.19018,-2.189942 0.80933,-0.968017 2.07093,-1.634521 1.26159,-0.674439 3.02307,-0.952149 l 0,2.078858 q -0.62683,0.09521 -1.24573,0.301513 -0.6189,0.206299 -1.15845,0.55542 -0.53955,0.341187 -0.96802,0.83313 -0.42846,0.491943 -0.67443,1.150513 0.30151,-0.230103 0.77758,-0.396729 0.47608,-0.166626 1.08704,-0.166626 0.80933,0 1.4917,0.269776 0.69031,0.269775 1.18225,0.761718 0.49194,0.491944 0.76965,1.174317 0.27771,0.682373 0.27771,1.515503 0,0.825195 -0.30151,1.507568 -0.29358,0.674439 -0.83313,1.158447 -0.53955,0.484009 -1.2854,0.753785 -0.74585,0.269775 -1.64246,0.269775 z m 0,-2.086792 q 0.40467,0 0.74585,-0.103149 0.34119,-0.111084 0.58716,-0.317383 0.25391,-0.206299 0.39673,-0.499878 0.14282,-0.301514 0.14282,-0.682373 0,-0.388794 -0.14282,-0.690308 -0.14282,-0.309448 -0.39673,-0.515747 -0.24597,-0.214233 -0.58716,-0.325317 -0.34118,-0.111084 -0.74585,-0.111084 -0.40466,0 -0.75378,0.111084 -0.34119,0.111084 -0.59509,0.325317 -0.24598,0.214234 -0.3888,0.523682 -0.14282,0.301513 -0.14282,0.682373 0,0.380859 0.14282,0.682373 0.14282,0.293579 0.3888,0.499878 0.2539,0.206299 0.59509,0.317383 0.34912,0.103149 0.75378,0.103149 z"
           style="font-style:normal;font-variant:normal;font-weight:bold;font-stretch:normal;font-size:16.25px;line-height:1000%;font-family:Overpass;-inkscape-font-specification:'Overpass Bold';fill:#ffffff;fill-opacity:1"
           id="path4353"
           inkscape:connector-curvature="0" /></g></g></g></svg>